<?xml version="1.0" encoding="UTF-8"?>
<svg width="24px" height="18px" viewBox="0 0 24 18" version="1.1" xmlns="http://www.w3.org/2000/svg" xmlns:xlink="http://www.w3.org/1999/xlink">
    <title>icon_discord@1x</title>
    <g id="Page-1" stroke="none" stroke-width="1" fill="none" fill-rule="evenodd">
        <g id="Dash_mobile" transform="translate(-102.000000, -1857.000000)" fill="#FFFFFF" fill-rule="nonzero">
            <g id="section_footer" transform="translate(0.000000, 1542.000000)">
                <g id="social-links" transform="translate(102.000000, 315.000000)">
                    <path d="M20.3482702,1.5202281 C20.3415995,1.50750435 20.3305449,1.49753404 20.3170864,1.49210303 C18.7610308,0.789323331 17.1189462,0.288186379 15.4319263,0.00123338015 C15.4004902,-0.00451958431 15.3688497,0.0102193444 15.3534362,0.037795968 C15.1298356,0.43728803 14.9268557,0.847632188 14.7452708,1.26726321 C12.9267555,0.995527553 11.0769912,0.995527553 9.25847596,1.26726321 C9.07568892,0.846566636 8.86945627,0.436120178 8.64071868,0.037795968 C8.62466327,0.0108790563 8.59351064,-0.0036250544 8.56218779,0.00123338015 C6.87498962,0.287583952 5.23279829,0.78875858 3.67694607,1.49214321 C3.66362736,1.49770133 3.65238931,1.50719144 3.6447827,1.51930399 C0.533383971,6.09316319 -0.318945564,10.5545623 0.0991783588,14.9607157 C0.101554906,14.9825341 0.112822447,15.0024698 0.130402959,15.0159614 C1.9421416,16.3364547 3.9685932,17.3443974 6.12328123,17.9967766 C6.15435768,18.0059531 6.18795258,17.9951168 6.20748561,17.9696158 C6.67026586,17.3497715 7.08032392,16.6934112 7.43348993,16.0072093 C7.44330557,15.9881628 7.44437388,15.9658924 7.43642518,15.9460202 C7.42847647,15.926148 7.41227034,15.9105729 7.39189795,15.9032269 C6.74526634,15.6596774 6.11925143,15.3660841 5.51972808,15.0252025 C5.4976115,15.0124041 5.48343045,14.9895963 5.4819148,14.9643862 C5.48039916,14.9391761 5.49174836,14.9148809 5.51217703,14.899604 C5.6379734,14.8068314 5.76385139,14.7103223 5.88397426,14.6128488 C5.90574238,14.5952003 5.93578855,14.5912153 5.96152556,14.6025631 C9.88925369,16.3670897 14.1415544,16.3670897 18.0227926,14.6025631 C18.048608,14.5904834 18.0791836,14.5941283 18.1013235,14.6119247 C18.2214871,14.7093982 18.3473243,14.8068314 18.4740595,14.899604 C18.4945974,14.9147242 18.5061259,14.9389281 18.5047986,14.96414 C18.5034713,14.9893519 18.4894629,15.0122531 18.4674472,15.0252025 C17.8692871,15.3689516 17.2427047,15.662361 16.5943794,15.9023028 C16.5740169,15.9099305 16.5579223,15.9257398 16.5501299,15.9457677 C16.5423376,15.9657956 16.5435862,15.9881435 16.5535629,16.0072093 C16.9126417,16.6895951 17.3220959,17.3451285 17.7786284,17.968531 C17.7976311,17.9947564 17.831541,18.0060827 17.8628328,17.9966561 C20.021382,17.3464886 22.0513754,16.3384522 23.8653846,15.0159614 C23.883253,15.0031245 23.8946322,14.983328 23.8966092,14.9616399 C24.3971824,9.8676678 23.0585654,5.44283127 20.3482702,1.5202281 Z M8.02006343,12.2778254 C6.83752864,12.2778254 5.86315786,11.2095951 5.86315786,9.89768126 C5.86315786,8.58576739 6.81863062,7.51745679 8.02006343,7.51745679 C9.23088402,7.51745679 10.1958262,8.59504867 10.1769282,9.8976009 C10.1769282,11.2095951 9.2214146,12.2778254 8.02006343,12.2778254 Z M15.9947854,12.2778254 C14.8122915,12.2778254 13.8379207,11.2095951 13.8379207,9.89768126 C13.8379207,8.58576739 14.7933934,7.51745679 15.9947854,7.51745679 C17.2056876,7.51745679 18.170589,8.59504867 18.151691,9.8976009 C18.151691,11.2095951 17.2056876,12.2778254 15.9947854,12.2778254 Z" id="icon_discord"></path>
                </g>
            </g>
        </g>
    </g>
</svg>