<?xml version="1.0" encoding="UTF-8"?>
<svg width="21px" height="17px" viewBox="0 0 21 17" version="1.1" xmlns="http://www.w3.org/2000/svg" xmlns:xlink="http://www.w3.org/1999/xlink">
    <title>icon_twiiter@1x</title>
    <g id="Page-1" stroke="none" stroke-width="1" fill="none" fill-rule="evenodd">
        <g id="Dash_mobile" transform="translate(-149.000000, -1858.000000)" fill="#FFFFFF" fill-rule="nonzero">
            <g id="section_footer" transform="translate(0.000000, 1542.000000)">
                <g id="social-links" transform="translate(102.000000, 315.000000)">
                    <path d="M65.8414213,5.23670332 C65.8547514,5.42263194 65.8547514,5.60860145 65.8547514,5.79453007 C65.8547514,11.4655983 61.5241817,18 53.6091606,18 C51.1706901,18 48.9054703,17.2960631 47,16.0742406 C47.3464603,16.1140591 47.6795495,16.1273456 48.03934,16.1273456 C50.0513693,16.1273456 51.9035602,15.4500225 53.3826304,14.2945505 C51.4904902,14.2546911 49.9048199,13.0195413 49.3584897,11.319529 C49.6250103,11.3593475 49.8914898,11.3859204 50.1713405,11.3859204 C50.5577502,11.3859204 50.944201,11.3327746 51.3039504,11.2398512 C49.3318704,10.8413802 47.8527592,9.11483586 47.8527592,7.0296799 L47.8527592,6.97657496 C48.4257087,7.29532726 49.0920101,7.49454233 49.7981789,7.52107436 C48.6389087,6.75074609 47.8794195,5.4359184 47.8794195,3.94840767 C47.8794195,3.15154736 48.0925785,2.42107845 48.4656991,1.78357385 C50.5843695,4.38669719 53.7690401,6.08666857 57.3400795,6.27263808 C57.2734698,5.95388578 57.2334794,5.6218879 57.2334794,5.28984915 C57.2334794,2.92575937 59.1522799,1 61.5374298,1 C62.7766398,1 63.8959195,1.51796738 64.6821101,2.35468705 C65.6547994,2.16875843 66.5875394,1.81014676 67.4137204,1.3187523 C67.0938793,2.31486857 66.4143297,3.15158824 65.5215802,3.68280119 C66.3877105,3.58987776 67.2271806,3.35076244 68,3.01876456 C67.4138024,3.86872981 66.6808913,4.62573076 65.8414213,5.23670332 Z" id="icon_twiiter"></path>
                </g>
            </g>
        </g>
    </g>
</svg>