<?xml version="1.0" encoding="UTF-8"?>
<svg width="26px" height="15px" viewBox="0 0 26 15" version="1.1" xmlns="http://www.w3.org/2000/svg" xmlns:xlink="http://www.w3.org/1999/xlink">
    <title>icon_medium@1x</title>
    <g id="Page-1" stroke="none" stroke-width="1" fill="none" fill-rule="evenodd">
        <g id="Dash_mobile" transform="translate(-191.000000, -1860.000000)" fill="#FFFFFF" fill-rule="nonzero">
            <g id="section_footer" transform="translate(0.000000, 1542.000000)">
                <g id="social-links" transform="translate(102.000000, 315.000000)">
                    <path d="M96.3328125,3 C92.2830281,3 89,6.35803464 89,10.5 C89,14.6419654 92.2832719,18 96.3328125,18 C100.382353,18 103.665625,14.642213 103.665625,10.5 C103.665625,6.35778703 100.382759,3 96.3328125,3 Z M104.376766,10.5001238 C104.376766,14.3989782 106.018259,17.5611127 108.043212,17.5611127 C110.068166,17.5611127 111.709659,14.3991845 111.709659,10.5001238 C111.709375,6.60015517 110.068125,3.43934125 108.04305,3.43934125 C106.018016,3.43934125 104.376766,6.60126941 104.376766,10.5001238 Z M112.421166,10.5001238 C112.421166,13.9933118 112.998041,16.8254658 113.7104,16.8254658 C114.422759,16.8254658 115,13.992569 115,10.5 C115,7.0066882 114.422516,4.17478183 113.710481,4.17478183 C112.998406,4.17478183 112.421166,7.00693581 112.421166,10.5001238 Z" id="icon_medium"></path>
                </g>
            </g>
        </g>
    </g>
</svg>