<svg viewBox="0 0 258 59" fill="none" xmlns="http://www.w3.org/2000/svg"><path fill-rule="evenodd" clip-rule="evenodd" d="m26.108 9.539 5.037 2.91v12.695l10.988 6.342v5.811l-5.052 2.916-10.983-6.342-10.978 6.337-5.042-2.91v-5.822l10.989-6.342V12.45l5.041-2.911Z" fill="#FFC700"/><path fill-rule="evenodd" clip-rule="evenodd" d="M0 37.297V12.995l13.054-7.537L21.056.83V12.47l-2.975 1.715-8.003 4.627V31.5L0 37.297Zm47.165 8.733-8.003 4.622-13.054 7.537-13.049-7.537-8.002-4.627 10.078-5.817 2.97 1.716 8.003 4.626 8.003-4.626 2.96-1.71 10.094 5.816ZM31.16.811l8.002 4.627 13.05 7.557v24.333L42.132 31.5V18.79l-8.002-4.626-3.001-1.715L31.16.81Z" fill="#FFC700"/><path d="M238.284 40.203h-6.577V13.91H258v26.293h-6.572V20.497h-13.144v19.706ZM221.649 27.05l-9.858 6.577h9.858V27.05ZM201.933 13.91h26.293v26.293h-26.293v-6.577l19.716-13.129h-19.716V13.91Zm-3.316 0v26.293h-6.597V13.91h6.597Zm-16.305 6.587h-13.14v13.14h13.14v-13.14Zm6.577-13.154v32.86h-26.294V13.91h19.717V7.333l6.577.01Zm-29.755 6.577v26.283h-6.572V13.91l6.572.01ZM130 23.768h19.716v16.435h-26.293v-6.577h19.716v-3.28h-19.716V13.91h26.293v6.587H130v3.271Zm-16.165-3.27h-13.134v13.138h13.134V20.497ZM100.701 7.342v6.577h19.716v26.283H94.119V7.333l6.582.01ZM84.486 20.497H71.342v13.14h13.144v-13.14Zm6.577-6.577v26.283H64.76V13.91l26.303.01Z" fill="white"/></svg>