<?xml version="1.0" encoding="UTF-8"?>
<svg width="17px" height="22px" viewBox="0 0 17 22" version="1.1" xmlns="http://www.w3.org/2000/svg" xmlns:xlink="http://www.w3.org/1999/xlink">
    <title>icon - docs@1x</title>
    <g id="Page-1" stroke="none" stroke-width="1" fill="none" fill-rule="evenodd">
        <g id="Dark" transform="translate(-388.000000, -614.000000)" fill="#FFFFFF" fill-rule="nonzero">
            <g id="section_hero" transform="translate(0.000000, 123.000000)">
                <g id="btn_Documentation" transform="translate(362.000000, 472.000000)">
                    <path d="M29.5416667,25.875 L32.375,25.875 C32.7645833,25.875 33.0833333,25.565625 33.0833333,25.1875 C33.0833333,24.809375 32.7645833,24.5 32.375,24.5 L29.5416667,24.5 C29.1503125,24.5 28.8333333,24.809375 28.8333333,25.1875 C28.8333333,25.565625 29.1503125,25.875 29.5416667,25.875 Z M29.5416667,23.125 L32.375,23.125 C32.7645833,23.125 33.0833333,22.8173437 33.0833333,22.4375 C33.0833333,22.0576563 32.7645833,21.75 32.375,21.75 L29.5416667,21.75 C29.1503125,21.75 28.8333333,22.0576563 28.8333333,22.4375 C28.8333333,22.8173437 29.1503125,23.125 29.5416667,23.125 Z M42.1721354,24.3839844 L37.4572917,19.8078125 C36.9216146,19.2896953 36.2044271,19 35.4518229,19 L28.8333333,19 C27.2683594,19 26,20.2310547 26,21.75 L26.0002878,38.25 C26.0002878,39.7689453 27.2686471,41 28.8336211,41 L40.1666667,41 C41.7316406,41 43,39.7689453 43,38.25 L43,26.3261719 C43,25.5957031 42.7033854,24.8996094 42.1721354,24.3839844 Z M35.9166667,20.464375 C36.1148672,20.5316641 36.3003177,20.6296328 36.4532292,20.7780039 L41.1680729,25.3541758 C41.3221354,25.5011719 41.4239583,25.6816406 41.4903646,25.875 L36.625,25.875 C36.2354167,25.875 35.9166667,25.565625 35.9166667,25.1875 L35.9166667,20.464375 Z M41.5833333,38.25 C41.5833333,39.0079688 40.9476042,39.625 40.1666667,39.625 L28.8333333,39.625 C28.0523958,39.625 27.4166667,39.0079688 27.4166667,38.25 L27.4166667,21.75 C27.4166667,20.9920313 28.0523958,20.375 28.8333333,20.375 L34.5,20.375 L34.5,25.1875 C34.5,26.3261719 35.4518229,27.25 36.625,27.25 L41.5833333,27.25 L41.5833333,38.25 Z M28.8333333,30.6875 L28.8333333,33.4375 C28.8333333,34.1954688 29.4690625,34.8125 30.25,34.8125 L38.75,34.8125 C39.5309375,34.8125 40.1666667,34.1954688 40.1666667,33.4375 L40.1666667,30.6875 C40.1666667,29.9295313 39.5309375,29.3125 38.75,29.3125 L30.25,29.3125 C29.4690625,29.3125 28.8333333,29.93125 28.8333333,30.6875 Z M38.75,33.4375 L30.25,33.4375 L30.25,30.6875 L38.75,30.6875 L38.75,33.4375 Z M39.4583333,36.875 L36.625,36.875 C36.2334688,36.875 35.9166667,37.1824844 35.9166667,37.5625 C35.9166667,37.9425156 36.2334688,38.25 36.625,38.25 L39.4583333,38.25 C39.8498646,38.25 40.1666667,37.9425156 40.1666667,37.5625 C40.1666667,37.1824844 39.8479167,36.875 39.4583333,36.875 Z" id="icon---docs"></path>
                </g>
            </g>
        </g>
    </g>
</svg>