<svg width="46" height="46" viewBox="0 0 46 46" fill="none" xmlns="http://www.w3.org/2000/svg">
<path fill-rule="evenodd" clip-rule="evenodd" d="M13.1653 39.6732L19.191 41.2682V39.1824L19.6829 38.6917H23.1262V41.1455V42.8631H19.437L14.8869 40.9001L13.1653 39.6732Z" fill="#CDBDB2"/>
<path fill-rule="evenodd" clip-rule="evenodd" d="M32.8413 39.6732L26.9385 41.2682V39.1824L26.4467 38.6917H23.0034V41.1455V42.8631H26.6926L31.2426 40.9001L32.8413 39.6732Z" fill="#CDBDB2"/>
<path fill-rule="evenodd" clip-rule="evenodd" d="M19.6828 35.1337L19.1909 39.1825L19.8058 38.6918H26.2005L26.9383 39.1825L26.4464 35.1337L25.4626 34.5203L20.5436 34.643L19.6828 35.1337Z" fill="#393939"/>
<path fill-rule="evenodd" clip-rule="evenodd" d="M16.3625 7.77368L19.3139 14.6444L20.6666 34.643H25.4626L26.9383 14.6444L29.6438 7.77368H16.3625Z" fill="#F89C35"/>
<path fill-rule="evenodd" clip-rule="evenodd" d="M3.45036 22.8647L0.00708008 32.8026L8.61527 32.3119H14.1491V28.0177L13.9032 19.184L12.6734 20.1655L3.45036 22.8647Z" fill="#F89D35"/>
<path fill-rule="evenodd" clip-rule="evenodd" d="M9.96802 23.9688L20.0519 24.2141L18.9451 29.3672L14.1491 28.1402L9.96802 23.9688Z" fill="#D87C30"/>
<path fill-rule="evenodd" clip-rule="evenodd" d="M9.96802 24.0916L14.1491 28.0177V31.9438L9.96802 24.0916Z" fill="#EA8D3A"/>
<path fill-rule="evenodd" clip-rule="evenodd" d="M14.1489 28.1404L19.0679 29.3673L20.6666 34.643L19.5598 35.2565L14.1489 32.0665V28.1404Z" fill="#F89D35"/>
<path fill-rule="evenodd" clip-rule="evenodd" d="M14.1491 32.0664L13.1653 39.6732L19.6829 35.1337L14.1491 32.0664Z" fill="#EB8F35"/>
<path fill-rule="evenodd" clip-rule="evenodd" d="M20.0518 24.2144L20.6666 34.6431L18.822 29.306L20.0518 24.2144Z" fill="#EA8E3A"/>
<path fill-rule="evenodd" clip-rule="evenodd" d="M8.49219 32.1891L14.149 32.0664L13.1652 39.6732L8.49219 32.1891Z" fill="#D87C30"/>
<path fill-rule="evenodd" clip-rule="evenodd" d="M2.71251 42.986L13.1653 39.6733L8.4923 32.1892L0.00708008 32.8027L2.71251 42.986Z" fill="#EB8F35"/>
<path fill-rule="evenodd" clip-rule="evenodd" d="M19.3141 14.6443L14.0262 19.0612L9.96802 23.9688L20.0519 24.3369L19.3141 14.6443Z" fill="#E8821E"/>
<path fill-rule="evenodd" clip-rule="evenodd" d="M13.1653 39.6732L19.6829 35.1337L19.191 39.0598V41.2682L14.7639 40.4094L13.1653 39.6732Z" fill="#DFCEC3"/>
<path fill-rule="evenodd" clip-rule="evenodd" d="M32.8413 39.6732L26.4466 35.1337L26.9385 39.0598V41.2682L31.3656 40.4094L32.8413 39.6732Z" fill="#DFCEC3"/>
<path fill-rule="evenodd" clip-rule="evenodd" d="M17.3465 26.4227L18.6992 29.2446L13.9032 28.0177L17.3465 26.4227Z" fill="#393939"/>
<path fill-rule="evenodd" clip-rule="evenodd" d="M2.58936 2.0072L19.3138 14.6444L16.4854 7.77367L2.58936 2.0072Z" fill="#E88F35"/>
<path fill-rule="evenodd" clip-rule="evenodd" d="M2.58951 2.0072L0.375977 8.75519L1.60572 16.1166L0.744899 16.6074L1.97464 17.7116L0.990847 18.5705L2.34356 19.7974L1.48274 20.5335L3.45033 22.9873L12.6734 20.1654C17.1824 16.5665 19.396 14.7261 19.314 14.6443C19.232 14.5626 13.6572 10.3502 2.58951 2.0072Z" fill="#8E5A30"/>
<path fill-rule="evenodd" clip-rule="evenodd" d="M42.556 22.8647L45.9993 32.8026L37.3911 32.3119H31.8573V28.0177L32.1032 19.184L33.3329 20.1655L42.556 22.8647Z" fill="#F89D35"/>
<path fill-rule="evenodd" clip-rule="evenodd" d="M36.0383 23.9688L25.9545 24.2141L27.0612 29.3672L31.8572 28.1402L36.0383 23.9688Z" fill="#D87C30"/>
<path fill-rule="evenodd" clip-rule="evenodd" d="M36.0383 24.0916L31.8572 28.0177V31.9438L36.0383 24.0916Z" fill="#EA8D3A"/>
<path fill-rule="evenodd" clip-rule="evenodd" d="M31.8574 28.1404L26.9385 29.3673L25.3398 34.643L26.4466 35.2565L31.8574 32.0665V28.1404Z" fill="#F89D35"/>
<path fill-rule="evenodd" clip-rule="evenodd" d="M31.8573 32.0664L32.8411 39.6732L26.4464 35.2564L31.8573 32.0664Z" fill="#EB8F35"/>
<path fill-rule="evenodd" clip-rule="evenodd" d="M25.9546 24.2144L25.3397 34.6431L27.1843 29.306L25.9546 24.2144Z" fill="#EA8E3A"/>
<path fill-rule="evenodd" clip-rule="evenodd" d="M37.5142 32.1891L31.8573 32.0664L32.8411 39.6732L37.5142 32.1891Z" fill="#D87C30"/>
<path fill-rule="evenodd" clip-rule="evenodd" d="M43.2938 42.986L32.841 39.6733L37.514 32.1892L45.9993 32.8027L43.2938 42.986Z" fill="#EB8F35"/>
<path fill-rule="evenodd" clip-rule="evenodd" d="M26.6923 14.6443L31.9802 19.0612L36.0383 23.9688L25.9545 24.3369L26.6923 14.6443Z" fill="#E8821E"/>
<path fill-rule="evenodd" clip-rule="evenodd" d="M28.6598 26.4227L27.3071 29.2446L32.1031 28.0177L28.6598 26.4227Z" fill="#393939"/>
<path fill-rule="evenodd" clip-rule="evenodd" d="M43.417 2.0072L26.6925 14.6444L29.5209 7.77367L43.417 2.0072Z" fill="#E88F35"/>
<path fill-rule="evenodd" clip-rule="evenodd" d="M43.4168 2.0072L45.6304 8.75519L44.4006 16.1166L45.2614 16.6074L44.0317 17.7116L45.0155 18.5705L43.6628 19.7974L44.5236 20.5335L42.556 22.9873L33.333 20.1654C28.8239 16.5665 26.6104 14.7261 26.6923 14.6443C26.7743 14.5626 32.3492 10.3502 43.4168 2.0072Z" fill="#8E5A30"/>
</svg>
